<svg xmlns="http://www.w3.org/2000/svg" viewBox="0 0 30 45"><linearGradient id="a" gradientUnits="userSpaceOnUse" x1="4.617" y1="-17.346" x2="25.572" y2="15.045" gradientTransform="translate(0 25)"><stop offset=".389" stop-color="#ff9214"/><stop offset=".459" stop-color="#ff8724"/><stop offset=".624" stop-color="#ff7144"/><stop offset=".762" stop-color="#ff6357"/><stop offset=".857" stop-color="#ff5e5e"/></linearGradient><path d="M23.9 21.6c-2.4 0-4.4 2-4.4 4.4s2 4.4 4.4 4.4 4.4-2 4.4-4.4-2-4.4-4.4-4.4zm4.3 8.9c-2.4 2.4-6.2 2.4-8.6 0-1.2 1.1-1.8 2.7-1.9 4.4v1.8c0 .5.4.9.9.9h10.6c.5 0 .9-.4.9-.9v-1.8c-.1-1.7-.8-3.3-1.9-4.4zm-22-23c-2.5 0-4.4 2-4.4 4.5 0 2.4 2 4.4 4.4 4.4s4.4-2 4.4-4.4c0-2.5-1.9-4.5-4.4-4.5zm4.3 8.8c-2.4 2.3-6.2 2.3-8.6 0C.7 17.5 0 19.1 0 20.8v1.8c0 .5.4.9.9.9h10.7c.5 0 .9-.4.9-.9v-1.8c-.1-1.7-.8-3.3-2-4.5zm4.5-5.2c-.9 0-1.8.1-2.7.4v.5c0 .4 0 .9-.1 1.3 5.1-1.5 10.5 1.4 12.1 6.5v.2c.7 0 1.3.2 1.9.4-.9-5.4-5.7-9.3-11.2-9.3zm0 21.1c-4.4 0-8.2-2.9-9.4-7.1H3.9C5.1 30.3 9.7 34 15 34h1c.1-.6.2-1.2.4-1.8H15z" fill="url(#a)"/></svg>