<svg width="60" height="60" viewBox="0 0 60 60" fill="none" xmlns="http://www.w3.org/2000/svg">
<path d="M29.75 0C21.8893 0.0948375 14.3772 3.25965 8.81843 8.81843C3.25965 14.3772 0.0948375 21.8893 0 29.75C0.0948375 37.6107 3.25965 45.1228 8.81843 50.6816C14.3772 56.2403 21.8893 59.4052 29.75 59.5C37.6107 59.4052 45.1228 56.2403 50.6816 50.6816C56.2403 45.1228 59.4052 37.6107 59.5 29.75C59.4052 21.8893 56.2403 14.3772 50.6816 8.81843C45.1228 3.25965 37.6107 0.0948375 29.75 0ZM46.75 31.875H31.875V46.75H27.625V31.875H12.75V27.625H27.625V12.75H31.875V27.625H46.75V31.875Z" fill="#0061A6"/>
</svg>
