<svg width="24" height="18" viewBox="0 0 24 18" fill="none" xmlns="http://www.w3.org/2000/svg">
<path d="M10.2857 3.85714C10.2857 4.88012 9.87932 5.8612 9.15597 6.58456C8.43261 7.30791 7.45153 7.71429 6.42855 7.71429C5.40558 7.71429 4.4245 7.30791 3.70114 6.58456C2.97779 5.8612 2.57141 4.88012 2.57141 3.85714C2.57141 2.83416 2.97779 1.85309 3.70114 1.12973C4.4245 0.406377 5.40558 0 6.42855 0C7.45153 0 8.43261 0.406377 9.15597 1.12973C9.87932 1.85309 10.2857 2.83416 10.2857 3.85714Z" fill="white"/>
<path d="M20.5715 3.85714C20.5715 4.36367 20.4717 4.86524 20.2779 5.33321C20.084 5.80118 19.7999 6.22639 19.4417 6.58456C19.0836 6.94272 18.6584 7.22684 18.1904 7.42068C17.7224 7.61452 17.2208 7.71429 16.7143 7.71429C16.2078 7.71429 15.7062 7.61452 15.2383 7.42068C14.7703 7.22684 14.3451 6.94272 13.9869 6.58456C13.6287 6.22639 13.3446 5.80118 13.1508 5.33321C12.9569 4.86524 12.8572 4.36367 12.8572 3.85714C12.8572 2.83416 13.2636 1.85309 13.9869 1.12973C14.7103 0.406377 15.6913 0 16.7143 0C17.7373 0 18.7184 0.406377 19.4417 1.12973C20.1651 1.85309 20.5715 2.83416 20.5715 3.85714Z" fill="white"/>
<path d="M15.3386 18C15.3977 17.5796 15.4286 17.1514 15.4286 16.7143C15.4315 14.6942 14.7519 12.7324 13.5 11.1471C14.4773 10.5829 15.5858 10.2859 16.7142 10.2859C17.8427 10.2859 18.9512 10.5829 19.9285 11.1471C20.9058 11.7113 21.7173 12.5228 22.2815 13.5001C22.8458 14.4773 23.1428 15.5858 23.1429 16.7143V18H15.3386Z" fill="white"/>
<path d="M6.42857 10.2857C8.13353 10.2857 9.76867 10.963 10.9743 12.1686C12.1798 13.3742 12.8571 15.0093 12.8571 16.7143V18H0V16.7143C0 15.0093 0.677294 13.3742 1.88288 12.1686C3.08848 10.963 4.72361 10.2857 6.42857 10.2857Z" fill="white"/>
</svg>
