<svg width="19" height="22" viewBox="0 0 19 22" fill="none" xmlns="http://www.w3.org/2000/svg">
<path d="M6.28118 1.375C6.55469 1.375 6.81699 1.48365 7.01039 1.67705C7.20378 1.87044 7.31243 2.13275 7.31243 2.40625V11C7.31243 11.1823 7.38487 11.3572 7.5138 11.4861C7.64273 11.6151 7.8176 11.6875 7.99993 11.6875C8.18227 11.6875 8.35714 11.6151 8.48607 11.4861C8.615 11.3572 8.68743 11.1823 8.68743 11V7.51713L8.80568 7.51162C9.24156 7.49512 9.68156 7.50062 9.92768 7.54875C10.1119 7.58587 10.3319 7.68075 10.5437 7.799C10.6496 7.85675 10.7499 8.00113 10.7499 8.23075V11C10.7499 11.1823 10.8224 11.3572 10.9513 11.4861C11.0802 11.6151 11.2551 11.6875 11.4374 11.6875C11.6198 11.6875 11.7946 11.6151 11.9236 11.4861C12.0525 11.3572 12.1249 11.1823 12.1249 11V8.84812C12.1735 8.84301 12.2221 8.83843 12.2707 8.83438C12.7052 8.80138 13.0737 8.82063 13.2442 8.88938C13.4064 8.95263 13.6567 9.174 13.9124 9.48063C14.0238 9.61263 14.1187 9.74187 14.1874 9.83675V11.6875C14.1874 11.8698 14.2599 12.0447 14.3888 12.1736C14.5177 12.3026 14.6926 12.375 14.8749 12.375C15.0573 12.375 15.2321 12.3026 15.3611 12.1736C15.49 12.0447 15.5624 11.8698 15.5624 11.6875V10.3125H16.0327C16.2248 10.3125 16.4149 10.3528 16.5905 10.4307C16.7662 10.5087 16.9235 10.6226 17.0524 10.7651C17.1813 10.9076 17.2789 11.0756 17.3389 11.2581C17.399 11.4407 17.42 11.6338 17.4008 11.825L17.0282 15.5581C16.9801 16.0379 16.8316 16.5021 16.5923 16.9207L14.6742 20.2785C14.6141 20.3837 14.5272 20.4712 14.4224 20.532C14.3176 20.5929 14.1986 20.625 14.0774 20.625H5.29806C5.18484 20.6249 5.07339 20.5969 4.9736 20.5434C4.87381 20.4899 4.78878 20.4126 4.72606 20.3184L2.75568 17.3621C2.57274 17.088 2.45816 16.7739 2.42156 16.4464L1.94718 12.177C1.92801 12.0059 1.97374 11.8338 2.07533 11.6948C2.17691 11.5558 2.32696 11.46 2.49581 11.4263L3.87493 11.1512V12.375C3.87493 12.5573 3.94737 12.7322 4.0763 12.8611C4.20523 12.9901 4.3801 13.0625 4.56243 13.0625C4.74477 13.0625 4.91964 12.9901 5.04857 12.8611C5.1775 12.7322 5.24993 12.5573 5.24993 12.375V2.40625C5.24993 2.13275 5.35858 1.87044 5.55198 1.67705C5.74538 1.48365 6.00768 1.375 6.28118 1.375ZM8.68743 6.14075V2.40625C8.68743 1.76807 8.43392 1.15603 7.98266 0.704774C7.5314 0.253515 6.91936 0 6.28118 0C5.64301 0 5.03097 0.253515 4.57971 0.704774C4.12845 1.15603 3.87493 1.76807 3.87493 2.40625V9.74875L2.22493 10.0787C1.71918 10.1801 1.26977 10.4674 0.965356 10.8838C0.660937 11.3002 0.523601 11.8156 0.580433 12.3282L1.05481 16.599C1.11581 17.1449 1.30677 17.6683 1.61168 18.1252L3.58206 21.0815C3.77039 21.364 4.02555 21.5957 4.3249 21.7559C4.62425 21.9161 4.95852 22 5.29806 22H14.0774C14.441 21.9999 14.798 21.9037 15.1124 21.7211C15.4268 21.5386 15.6874 21.2762 15.8677 20.9605L17.7858 17.6041C18.1211 17.0174 18.3292 16.3667 18.3963 15.6942L18.7689 11.9611C18.8072 11.5788 18.7649 11.1928 18.6448 10.8278C18.5246 10.4629 18.3294 10.1271 18.0716 9.84227C17.8138 9.5574 17.4992 9.32971 17.148 9.17387C16.7968 9.01803 16.4169 8.93751 16.0327 8.9375H15.2338C15.148 8.8211 15.0585 8.70738 14.9657 8.5965C14.7031 8.28162 14.2644 7.8155 13.7557 7.612C13.2552 7.41125 12.5924 7.4305 12.1634 7.4635L11.9819 7.48C11.8355 7.10527 11.5633 6.79317 11.2119 6.59725C10.8956 6.41481 10.5535 6.2813 10.1972 6.20125C9.77093 6.116 9.18106 6.1215 8.75343 6.138L8.68743 6.14075Z" fill="white"/>
</svg>
