<svg width="28" height="29" viewBox="0 0 28 29" fill="none" xmlns="http://www.w3.org/2000/svg">
<path d="M6 8C5.20888 8 4.43552 7.76541 3.77772 7.32588C3.11992 6.88635 2.60723 6.26164 2.30448 5.53074C2.00173 4.79983 1.92252 3.99556 2.07686 3.21964C2.2312 2.44372 2.61216 1.73098 3.17157 1.17157C3.73098 0.612165 4.44372 0.231202 5.21964 0.0768607C5.99556 -0.0774802 6.79983 0.00173312 7.53074 0.304484C8.26164 0.607234 8.88635 1.11992 9.32588 1.77772C9.76541 2.43552 10 3.20888 10 4C10 5.06087 9.57857 6.07828 8.82843 6.82843C8.07828 7.57857 7.06087 8 6 8ZM6 2C5.60444 2 5.21776 2.1173 4.88886 2.33706C4.55996 2.55683 4.30362 2.86918 4.15224 3.23463C4.00087 3.60009 3.96126 4.00222 4.03843 4.39018C4.1156 4.77814 4.30608 5.13451 4.58579 5.41422C4.86549 5.69392 5.22186 5.8844 5.60982 5.96157C5.99778 6.03874 6.39992 5.99914 6.76537 5.84776C7.13082 5.69639 7.44318 5.44004 7.66294 5.11114C7.8827 4.78224 8 4.39556 8 4C8 3.46957 7.78929 2.96086 7.41422 2.58579C7.03914 2.21072 6.53044 2 6 2Z" fill="#0061A6"/>
<path d="M22 8C21.2089 8 20.4355 7.76541 19.7777 7.32588C19.1199 6.88635 18.6072 6.26164 18.3045 5.53074C18.0017 4.79983 17.9225 3.99556 18.0769 3.21964C18.2312 2.44372 18.6122 1.73098 19.1716 1.17157C19.731 0.612165 20.4437 0.231202 21.2196 0.0768607C21.9956 -0.0774802 22.7998 0.00173312 23.5307 0.304484C24.2616 0.607234 24.8864 1.11992 25.3259 1.77772C25.7654 2.43552 26 3.20888 26 4C26 5.06087 25.5786 6.07828 24.8284 6.82843C24.0783 7.57857 23.0609 8 22 8ZM22 2C21.6044 2 21.2178 2.1173 20.8889 2.33706C20.56 2.55683 20.3036 2.86918 20.1522 3.23463C20.0009 3.60009 19.9613 4.00222 20.0384 4.39018C20.1156 4.77814 20.3061 5.13451 20.5858 5.41422C20.8655 5.69392 21.2219 5.8844 21.6098 5.96157C21.9978 6.03874 22.3999 5.99914 22.7654 5.84776C23.1308 5.69639 23.4432 5.44004 23.6629 5.11114C23.8827 4.78224 24 4.39556 24 4C24 3.46957 23.7893 2.96086 23.4142 2.58579C23.0391 2.21072 22.5304 2 22 2Z" fill="#0061A6"/>
<path d="M24 29H20C19.4696 29 18.9609 28.7893 18.5858 28.4142C18.2107 28.0391 18 27.5304 18 27V20H20V27H24V18H26V12C26 11.7348 25.8946 11.4804 25.7071 11.2929C25.5196 11.1054 25.2652 11 25 11H18.58L14 19L9.42 11H3C2.73478 11 2.48043 11.1054 2.29289 11.2929C2.10536 11.4804 2 11.7348 2 12V18H4V27H8V20H10V27C10 27.5304 9.78929 28.0391 9.41421 28.4142C9.03914 28.7893 8.53043 29 8 29H4C3.46957 29 2.96086 28.7893 2.58579 28.4142C2.21071 28.0391 2 27.5304 2 27V20C1.46957 20 0.960859 19.7893 0.585786 19.4142C0.210714 19.0391 0 18.5304 0 18V12C0 11.2044 0.316071 10.4413 0.87868 9.87868C1.44129 9.31607 2.20435 9 3 9H10.58L14 15L17.42 9H25C25.7956 9 26.5587 9.31607 27.1213 9.87868C27.6839 10.4413 28 11.2044 28 12V18C28 18.5304 27.7893 19.0391 27.4142 19.4142C27.0391 19.7893 26.5304 20 26 20V27C26 27.5304 25.7893 28.0391 25.4142 28.4142C25.0391 28.7893 24.5304 29 24 29Z" fill="#0061A6"/>
</svg>
