<svg enable-background="new 0 0 30 45" viewBox="0 0 30 45" xmlns="http://www.w3.org/2000/svg" xmlns:xlink="http://www.w3.org/1999/xlink"><linearGradient id="a"><stop offset=".3891" stop-color="#ff9214"/><stop offset=".4593" stop-color="#ff8724"/><stop offset=".6237" stop-color="#ff7144"/><stop offset=".7623" stop-color="#ff6357"/><stop offset=".8573" stop-color="#ff5e5e"/></linearGradient><linearGradient id="b" gradientUnits="userSpaceOnUse" x1="6.6353" x2="23.2859" xlink:href="#a" y1="36.611" y2="10.8731"/><linearGradient id="c" gradientUnits="userSpaceOnUse" x1="7.6719" x2="22.1954" xlink:href="#a" y1="34.9986" y2="12.5487"/><linearGradient id="d" gradientUnits="userSpaceOnUse" x1="11.3389" x2="18.5618" y1="29.3609" y2="18.1959"><stop offset="0" stop-color="#ff6357"/><stop offset=".8573" stop-color="#ff5e5e"/></linearGradient><path d="m28.2 14.8c-.6-.6-1.4-.9-2.2-.9h-4.5c0-.7-.2-1.3-.7-1.7-.5-.5-1.1-.7-1.7-.7h-8.1c-1.4 0-2.5 1.1-2.5 2.4h-4.6c-.9 0-1.7.3-2.2.9-.6.6-.9 1.4-.9 2.3v13.5c0 .8.3 1.7.9 2.2.6.6 1.4.9 2.2.9h22c.9 0 1.7-.3 2.2-.9.6-.6.9-1.4.9-2.2v-13.5c.2-.9-.1-1.7-.8-2.3z" fill="none" stroke="url(#b)" stroke-miterlimit="10"/><path d="m27.8 30.5c0 1-.8 1.8-1.8 1.8h-22c-.9 0-1.8-.8-1.8-1.7v-13.5c0-.9.8-1.8 1.7-1.8h5.2c.4 0 .7-.3.7-.7v-.8c0-.3.1-.5.3-.7s.5-.3.7-.3h8.2c.3 0 .5.1.7.3s.3.5.3.7v.7c0 .4.3.7.7.7h5.2c.9 0 1.8.8 1.8 1.7z" fill="url(#c)"/><path d="m15 17.1c-1.8 0-3.5.7-4.7 1.9-1.3 1.3-2 3-2 4.8 0 3.7 3 6.6 6.6 6.6s6.6-3 6.6-6.6-2.9-6.7-6.5-6.7z" fill="url(#d)"/><g fill="#fff"><path d="m18.6 27.5c-2 2-5.3 2-7.3 0-1-1-1.5-2.3-1.5-3.7s.5-2.7 1.5-3.7 2.3-1.5 3.7-1.5 2.7.5 3.7 1.5 1.5 2.3 1.5 3.7-.6 2.7-1.6 3.7z"/><circle cx="24.6" cy="18.4" r="1.3"/></g></svg>