<svg enable-background="new 0 0 30 45" viewBox="0 0 30 45" xmlns="http://www.w3.org/2000/svg" xmlns:xlink="http://www.w3.org/1999/xlink"><linearGradient id="a"><stop offset=".3891" stop-color="#ff9214"/><stop offset=".4593" stop-color="#ff8724"/><stop offset=".6237" stop-color="#ff7144"/><stop offset=".7623" stop-color="#ff6357"/><stop offset=".8573" stop-color="#ff5e5e"/></linearGradient><linearGradient id="b" gradientUnits="userSpaceOnUse" x1="5.3191" x2="25.1202" xlink:href="#a" y1="38.5797" y2="7.9719"/><linearGradient id="c" gradientUnits="userSpaceOnUse" x1="6.7319" x2="23.138" xlink:href="#a" y1="36.3158" y2="10.9558"/><path d="m25.8 10.6h-1.3v-2.2h-2.2v2.2h-14.6v-2.2h-2.3v2.2h-1.2c-1.8 0-3.3 1.5-3.3 3.3v19.4c0 1.8 1.5 3.3 3.3 3.3h21.6c1.8 0 3.3-1.5 3.3-3.3v-19.4c0-1.8-1.5-3.3-3.3-3.3z" fill="none" stroke="url(#b)" stroke-miterlimit="10"/><path d="m26.9 16.6h-23.9v-2.6c0-.6.5-1.1 1.1-1.1h1.3v2.1h2.2v-2.2h14.6v2.2h2.2v-2.2h1.3c.6 0 1.1.5 1.1 1.1zm-23.8 2.1v14.6c0 .6.5 1.1 1.1 1.1h21.6c.6 0 1.1-.5 1.1-1.1v-14.6zm4.2 13.4h-2.3v-2.2h2.2v2.2zm0-4.4h-2.3v-2.2h2.2v2.2zm0-4.4h-2.3v-2.2h2.2v2.2zm4.3 8.8h-2.2v-2.2h2.2zm0-4.4h-2.2v-2.2h2.2zm0-4.4h-2.2v-2.2h2.2zm4.4 8.8h-2.2v-2.2h2.2zm0-4.4h-2.2v-2.2h2.2zm0-4.4h-2.2v-2.2h2.2zm4.5 8.8h-2.2v-2.2h2.2zm0-4.4h-2.2v-2.2h2.2zm0-4.4h-2.2v-2.2h2.2zm4.4 4.4h-2.2v-2.2h2.2zm0-4.4h-2.2v-2.2h2.2z" fill="url(#c)"/><g fill="none" stroke="#00af23" stroke-linecap="round" stroke-miterlimit="10" stroke-width=".25"><path d="m9.6 26.6.4.5 1.5-1.3"/><path d="m18.4 31.2.5.4 1.4-1.3"/><path d="m22.9 22.4.4.4 1.5-1.2"/></g></svg>