<svg width="8" height="11" viewBox="0 0 8 11" fill="none" xmlns="http://www.w3.org/2000/svg">
<path d="M7.5225 2.80627C7.7115 2.59411 7.8155 2.31236 7.8155 2.01265C7.8155 1.71294 7.7115 1.4312 7.5225 1.21904L6.7295 0.328894C6.5405 0.116741 6.2895 0 6.0225 0C5.7555 0 5.5045 0.116741 5.316 0.328333L0 6.27705V8.75499H2.2065L7.5225 2.80627ZM6.0225 1.12251L6.816 2.01209L6.021 2.90112L5.228 2.01153L6.0225 1.12251ZM1 7.63248V6.7429L4.52 2.80402L5.313 3.69417L1.7935 7.63248H1ZM0 9.87749H8V11H0V9.87749Z" fill="#0061A6"/>
</svg>
