<svg width="30" height="30" id="Layer_1" data-name="Layer 1" xmlns="http://www.w3.org/2000/svg" 
viewBox="0 0 25 25"><defs><style>.cls-1{fill:#0061a6;}</style></defs><path class="cls-1" d="M1.46,15.69l2-2.92,8,2.65c-.62,1-1.17,1.9-1.79,2.79a.77.77,0,0,1-.7.17c-2.53-.82-5-1.67-7.57-2.51Z"/><path class="cls-1" d="M21.18,18.06c0,1.37,0,2.63,0,3.88a.67.67,0,0,1-.33.5c-2.51.86-5,1.69-7.63,2.56V17.45l1,1.56c.84,1.29.47,1.17,1.9.7l4.08-1.35Z"/><path class="cls-1" d="M11.81,17.72V25L8.35,23.84C7,23.41,5.73,23,4.43,22.53c-.24-.09-.57-.37-.58-.57-.05-1.26,0-2.52,0-3.92,1.63.54,3.15,1,4.66,1.54s1.61.54,2.5-.87c.22-.36.45-.7.68-1.05Z"/><path class="cls-1" d="M19.78,12l-.4.13c-1.44.47-2.72.82-3.92,1.35a6.74,6.74,0,0,1-5.85,0A32,32,0,0,0,6,12.22L5.25,12l.54-.18,6.4-2.12a1,1,0,0,1,.59,0l6.72,2.22Z"/><path class="cls-1" d="M23.54,15.89l-6.12,2c-2,.65-2,.64-3.05-1.11l-.87-1.38,8.07-2.68Z"/><path class="cls-1" d="M12.72,8.94l-.34-.44c-.57-.71-1.14-1.42-1.7-2.14a1,1,0,0,1-.13-.16s0,0,0,0V5.65h.6a2,2,0,0,0,.68-.11,1.06,1.06,0,0,0,.49-.31,1,1,0,0,0,.26-.53V4.58H10.34l0,0L10.7,4l0,0H12.5V4A.88.88,0,0,0,12,3.54a1.4,1.4,0,0,0-.4-.11,4.16,4.16,0,0,0-.61,0h-.66l0,0,.34-.53h3.77l-.34.53s0,0,0,0h-1a1.17,1.17,0,0,1,.27.61h1.09c-.11.18-.23.36-.35.54a0,0,0,0,1,0,0h-.69a.36.36,0,0,0,0,.1A1.58,1.58,0,0,1,13,5.4a2,2,0,0,1-.73.51,2.49,2.49,0,0,1-.61.16l-.24,0h0l1.65,2.05c.2.26.4.51.61.76v0Z"/><path class="cls-1" d="M12.67,0A8.82,8.82,0,0,0,4.26,11.51l1-.31A7.73,7.73,0,1,1,20.4,8.82a7.81,7.81,0,0,1-.33,2.23l1,.45a8.74,8.74,0,0,0,.41-2.68A8.83,8.83,0,0,0,12.67,0Z"/></svg>