<svg width="11" height="11" viewBox="0 0 11 11" fill="none" xmlns="http://www.w3.org/2000/svg">
<path d="M4.70412 9.40774C5.74783 9.40753 6.76147 9.05814 7.58363 8.41522L10.1685 11L11 10.1686L8.41508 7.58381C9.05837 6.76162 9.40799 5.7478 9.40824 4.70387C9.40824 2.11027 7.29786 0 4.70412 0C2.11039 0 0 2.11027 0 4.70387C0 7.29747 2.11039 9.40774 4.70412 9.40774ZM4.70412 1.17597C6.64986 1.17597 8.23221 2.75823 8.23221 4.70387C8.23221 6.64951 6.64986 8.23177 4.70412 8.23177C2.75838 8.23177 1.17603 6.64951 1.17603 4.70387C1.17603 2.75823 2.75838 1.17597 4.70412 1.17597Z" fill="#0061A6"/>
</svg>
