<svg height="45pt" viewBox="0 0 30 45" width="30pt" xmlns="http://www.w3.org/2000/svg" xmlns:xlink="http://www.w3.org/1999/xlink"><linearGradient id="a"><stop offset=".3891" stop-color="#ff9214"/><stop offset=".4593" stop-color="#ff8724"/><stop offset=".6237" stop-color="#ff7144"/><stop offset=".7623" stop-color="#ff6357"/><stop offset=".8573" stop-color="#ff5e5e"/></linearGradient><linearGradient id="b" gradientUnits="userSpaceOnUse" x1="10.134716" x2="20.64574" xlink:href="#a" y1="21.448349" y2="39.65398"/><linearGradient id="c" gradientUnits="userSpaceOnUse" x1="7.509464" x2="12.98212" xlink:href="#a" y1="18.363045" y2="27.841963"/><linearGradient id="d" gradientUnits="userSpaceOnUse" x1="7.940926" x2="12.880753" xlink:href="#a" y1="10.069858" y2="18.625889"/><linearGradient id="e" gradientUnits="userSpaceOnUse" x1="22.17729" x2="24.400984" xlink:href="#a" y1="22.547524" y2="26.399075"/><path d="m27.613281 29.300781v6.328125c-8.410156 0-16.785156 0-25.210937 0 0-2.085937 0-4.179687 0-6.304687-.183594-.011719-.320313-.019531-.453125-.023438-.847657-.019531-1.46875-.621093-1.46875-1.433593-.003907-.828126.621093-1.449219 1.488281-1.453126 2.179688-.003906 4.355469 0 6.535156 0h19.449219c.902344 0 1.539063.566407 1.566406 1.375.027344.84375-.574219 1.488282-1.425781 1.511719-.140625.003907-.277344 0-.480469 0zm0 0" fill="url(#b)"/><path d="m12.066406 18.71875c1.214844.039062 2.304688.1875 3.300782.722656 1.429687.761719 2.152343 1.976563 2.222656 3.578125.027344.707031.003906 1.417969.003906 2.160157-4.71875 0-9.40625 0-14.15625 0 .066406-1.226563-.171875-2.449219.304688-3.628907.609374-1.511719 1.816406-2.273437 3.335937-2.617187.574219-.128906 1.167969-.167969 1.773437-.203125-1.226562.621093-1.8125 1.59375-1.777343 3.015625.441406-.160156.847656-.292969 1.242187-.457032.230469-.097656.355469-.058593.492188.160157.464844.730469.949218 1.445312 1.425781 2.167969.082031.125.167969.25.285156.425781.464844-.703125.90625-1.367188 1.34375-2.03125.542969-.824219.542969-.824219 1.476563-.488281.1875.070312.375.132812.605468.214843.070313-1.433593-.554687-2.394531-1.878906-3.019531zm0 0" fill="url(#c)"/><path d="m13.988281 17.988281c-.328125-.109375-.613281-.222656-.90625-.292969-.292969-.066406-.601562-.089843-.957031-.140624.074219-.121094.136719-.21875.203125-.316407.773437-1.121093 1.109375-2.359375 1-3.714843-.015625-.175782.003906-.363282-.277344-.351563-1.613281.054687-3.03125-.539063-4.382812-1.347656-.0625-.039063-.132813-.070313-.253907-.140625-.675781 2.035156-.734374 3.976562.484376 5.828125-.601563.136719-1.199219.273437-1.867188.429687-.121094-.527344-.277344-1.109375-.386719-1.703125-.242187-1.320312-.355469-2.648437-.046875-3.976562.410156-1.753907 1.746094-2.851563 3.546875-2.890625.554688-.007813 1.132813 0 1.667969.125 1.328125.3125 2.175781 1.210937 2.542969 2.492187.585937 2.03125.15625 4.019531-.367188 6zm0 0" fill="url(#d)"/><path d="m24 22.710938c1.585938.1875 2.5625 1.132812 2.527344 2.460937-2.023438 0-4.046875 0-6.070313 0-.136719-1.234375.882813-2.238281 2.503907-2.464844.089843-.324219-.035157-.835937.546874-.816406.527344.019531.425782.476563.492188.820313zm0 0" fill="url(#e)"/></svg>