<svg width="12" height="12" viewBox="0 0 12 12" fill="none" xmlns="http://www.w3.org/2000/svg">
<path d="M10.5 6L12 7.5L10.125 8.25L10.5 10.5L8.25 10.125L7.5 12L6 10.5L4.5 12L3.75 10.125L1.5 10.5L1.875 8.25L0 7.5L1.5 6L0 4.5L1.875 3.75L1.5 1.5L3.75 1.875L4.5 0L6 1.5L7.5 0L8.25 1.875L10.5 1.5L10.125 3.75L12 4.5L10.5 6ZM4.125 3C3.8125 3 3.54688 3.14648 3.32812 3.43945C3.10938 3.73242 3 4.08594 3 4.5C3 4.91406 3.10938 5.26758 3.32812 5.56055C3.54688 5.85352 3.8125 6 4.125 6C4.4375 6 4.70312 5.85352 4.92188 5.56055C5.14062 5.26758 5.25 4.91406 5.25 4.5C5.25 4.08594 5.14062 3.73242 4.92188 3.43945C4.70312 3.14648 4.4375 3 4.125 3ZM7.875 3H7.5C7.46875 3 7.43945 3.00586 7.41211 3.01758C7.38477 3.0293 7.36328 3.03906 7.34766 3.04688C7.33203 3.05469 7.31055 3.07617 7.2832 3.11133C7.25586 3.14648 7.23828 3.16992 7.23047 3.18164C7.22266 3.19336 7.20508 3.22461 7.17773 3.27539C7.15039 3.32617 7.13281 3.35938 7.125 3.375L3.80859 8.625C3.75391 8.71875 3.76562 8.80469 3.84375 8.88281C3.92188 8.96094 4.01562 9 4.125 9H4.5C4.53125 9 4.55664 8.99805 4.57617 8.99414C4.5957 8.99023 4.61719 8.98047 4.64062 8.96484C4.66406 8.94922 4.68164 8.93555 4.69336 8.92383C4.70508 8.91211 4.7207 8.89062 4.74023 8.85938C4.75977 8.82812 4.77344 8.80469 4.78125 8.78906C4.78906 8.77344 4.80469 8.74609 4.82812 8.70703C4.85156 8.66797 4.86719 8.64062 4.875 8.625L8.19141 3.375C8.24609 3.28125 8.23438 3.19531 8.15625 3.11719C8.07812 3.03906 7.98438 3 7.875 3ZM7.875 6C7.5625 6 7.29688 6.14648 7.07812 6.43945C6.85938 6.73242 6.75 7.08594 6.75 7.5C6.75 7.91406 6.85938 8.26758 7.07812 8.56055C7.29688 8.85352 7.5625 9 7.875 9C8.1875 9 8.45312 8.85352 8.67188 8.56055C8.89062 8.26758 9 7.91406 9 7.5C9 7.08594 8.89062 6.73242 8.67188 6.43945C8.45312 6.14648 8.1875 6 7.875 6ZM7.875 8.25C7.77344 8.25 7.68555 8.17578 7.61133 8.02734C7.53711 7.87891 7.5 7.70117 7.5 7.49414C7.5 7.28711 7.53711 7.11133 7.61133 6.9668C7.68555 6.82227 7.77344 6.75 7.875 6.75C7.97656 6.75 8.06445 6.82227 8.13867 6.9668C8.21289 7.11133 8.25 7.28711 8.25 7.49414C8.25 7.70117 8.21289 7.87891 8.13867 8.02734C8.06445 8.17578 7.97656 8.25 7.875 8.25ZM4.125 5.25C4.02344 5.25 3.93555 5.17578 3.86133 5.02734C3.78711 4.87891 3.75 4.70117 3.75 4.49414C3.75 4.28711 3.78711 4.11133 3.86133 3.9668C3.93555 3.82227 4.02344 3.75 4.125 3.75C4.22656 3.75 4.31445 3.82227 4.38867 3.9668C4.46289 4.11133 4.5 4.28711 4.5 4.49414C4.5 4.70117 4.46289 4.87891 4.38867 5.02734C4.31445 5.17578 4.22656 5.25 4.125 5.25Z" fill="#0061A6"/>
</svg>
