<svg width="48" height="45" viewBox="0 0 48 45" fill="none" xmlns="http://www.w3.org/2000/svg">
<path d="M16.5857 9.98747H21.2639V31.4033C21.2639 31.6818 21.4918 31.9097 21.7703 31.9097H25.5686C25.8471 31.9097 26.075 31.6818 26.075 31.4033V9.98747H30.7659C31.19 9.98747 31.4242 9.50003 31.1647 9.17085L24.0746 0.194312C24.0272 0.133782 23.9667 0.0848284 23.8976 0.0511623C23.8285 0.0174962 23.7526 0 23.6758 0C23.5989 0 23.5231 0.0174962 23.454 0.0511623C23.3849 0.0848284 23.3243 0.133782 23.277 0.194312L16.1869 9.16452C15.9273 9.50003 16.1616 9.98747 16.5857 9.98747ZM46.8451 29.5042H43.0469C42.7683 29.5042 42.5404 29.7321 42.5404 30.0106V39.7594H4.81112V30.0106C4.81112 29.7321 4.58323 29.5042 4.30469 29.5042H0.506434C0.227895 29.5042 0 29.7321 0 30.0106V42.5448C0 43.6653 0.90525 44.5706 2.02574 44.5706H45.3258C46.4463 44.5706 47.3516 43.6653 47.3516 42.5448V30.0106C47.3516 29.7321 47.1237 29.5042 46.8451 29.5042Z" fill="#0061A6"/>
</svg>
