<svg enable-background="new 0 0 30 45" viewBox="0 0 30 45" xmlns="http://www.w3.org/2000/svg" xmlns:xlink="http://www.w3.org/1999/xlink"><linearGradient id="a" gradientUnits="userSpaceOnUse" x1="3.010599" x2="26.993652" y1="1.736475" y2="43.276344"><stop offset=".3891" stop-color="#ff9214"/><stop offset=".4593" stop-color="#ff8724"/><stop offset=".6237" stop-color="#ff7144"/><stop offset=".7623" stop-color="#ff6357"/><stop offset=".8573" stop-color="#ff5e5e"/></linearGradient><path d="m27.9261837 22.521904c.0000019 6.1982441.000309 12.3964882-.0001965 18.5947342-.0001431 1.7485046-.7430553 2.4892921-2.5030365 2.4896049-6.9361305.0012321-13.8722591.0011444-20.8083897.0000648-1.79954-.0002823-2.5407829-.7382393-2.5407975-2.5217628-.000101-12.3964882-.000131-24.7929744.0000371-37.1894617.0000234-1.7318707.7633679-2.4990993 2.5098395-2.4998612 6.9572105-.0030351 13.9144258-.0033612 20.8716354.0002697 1.7096195.0008923 2.4703884.7682644 2.4705982 2.4683633.0007697 6.2193491.0003062 12.4386999.00031 18.6580488zm-23.3197503-16.9576736v29.5226154h20.7984276c0-9.8665905 0-19.691906 0-29.5226154-6.9542537 0-13.8579564 0-20.7984276 0zm10.288322-1.2616119c.7997112 0 1.5998755-.0164223 2.3989801.0055909.5624084.0154929.7228146-.2436399.7099361-.7718787-.0123711-.5075047-.0120163-.9271073-.6997833-.91977-1.5992432.0170617-3.1988783.0152984-4.7981672.0006073-.6116848-.005619-.7230597.3198853-.7211437.8457429.0018826.5165992.0862274.863178.7112064.8451807.7990475-.0230102 1.5992613-.0055832 2.3989716-.0054731zm1.6490411 35.1576362c-.0006695-.9056664-.7444887-1.648922-1.6478949-1.6466408-.9030466.0022812-1.6447763.751049-1.6394253 1.6549835.0054255.9167213.7383595 1.6466026 1.6477823 1.6409302.9136621-.005703 1.6402112-.7365685 1.6395379-1.6492729zm-5.9028501-36.0454243c-.0434742-.4175317-.3058882-.7110283-.7823315-.763721-.4462233-.0493507-.860568.3539374-.8515301.8087976.0098476.4956141.2841263.7741561.7714605.8158417.4607211.0394101.8556166-.3394618.8624011-.8609183zm.9549522 14.1575077c.0237951.9260712.0085135 1.8531685.0079269 2.7798347-.0003128.4920044.2235746.7245312.7347708.7207985 1.7058249-.0124626 3.4118395-.0112591 5.117691-.0006809.5034695.0031242.7369995-.2082176.7315521-.7158756-.0097122-.9055004-.0005894-1.8111916-.0025082-2.7167931-.0018349-.8658524-.1134205-.9776707-.986969-.9795532-1.2350016-.0026588-2.4700108-.0006733-3.7571201-.0006733 0-.6606722-.0150471-1.2465487.0036869-1.8313446.0252218-.7872963.6338825-1.4080238 1.3914099-1.450325.7139282-.0398674 1.3928175.4935112 1.4952745 1.2619467.0625782.4693403.2798405.6363163.7066822.5792532.4815769-.0643835.4489861-.4094925.3901482-.7663774-.2055187-1.2465372-1.2418995-2.1441107-2.5014267-2.1604376-1.2686329-.0164461-2.3860598.8957586-2.5428047 2.171876-.0838842.6829357-.0148945 1.3846483-.0148945 2.1437407-.6332587.0992506-.7866315.4503897-.7734193.9646109zm-2.5742597 9.5616703c-.2141314.3202877-.3757772.5620689-.568758.8507195.2366972.1175385.4465094.2217255.6664085.3309212.1654139-.3081493.2946548-.5489159.4442406-.8275852.1901894.3227482.3360977.5703487.4991665.8470707.2293053-.131979.4177694-.2404518.6196985-.356678-.2015543-.301178-.3686914-.55093-.5706244-.8526783.366396-.0647125.645236-.1139584.9472704-.1673012-.0353308-.2395191-.0648861-.4398861-.100565-.6817703-.3694029.0836086-.6897173.156105-1.0650759.2410622 0-.3641453 0-.6872215 0-1.0484772-.2682532.014099-.4853562.0255088-.7041835.0370082.0305557.3741245.0553246.6774006.0837097 1.0249443-.4113302-.0976715-.7326155-.1739616-1.0892029-.2586346-.0338717.247366-.0618572.4517536-.0941725.687748.307973.0573749.5954486.1109352.932088.1736507zm8.4120578 1.1971054c.2136974-.1154213.4103031-.2216091.6349258-.3429337-.1951351-.2888145-.3686695-.54566-.5761223-.8527069.3393898-.0647984.6356983-.1213722.948288-.1810551-.0324001-.2397976-.0599613-.4438019-.0926056-.6854-.3737278.0886478-.7086201.1680851-1.0964031.260067.0265121-.3644238.0487175-.6696377.0739098-1.0159206-.2486057 0-.4664421 0-.7144585 0v1.0073071c-.3544731-.0869217-.667223-.1636086-1.0232573-.2509117-.0467024.2611847-.0849533.4751091-.1243935.6956882.3338079.0587082.6096716.1072254.9424429.1657543-.2145405.3271446-.3816891.5820293-.5707245.870285.2409954.1158428.4435349.2131996.6730423.3235188.1406345-.2809792.2607327-.5209332.4269352-.8529968.1820852.3139267.3268968.5635891.4984208.8593044zm4.5827866-2.0482178c-.3723888.081419-.7032528.153759-1.070158.2339783.0283089-.3916225.0501652-.6939774.0723553-1.0009403-.2831593 0-.5021877 0-.741621 0 .0187836.3492222.0352325.6550293.054163 1.0070381-.3701706-.0870724-.688303-.1619072-1.0432434-.2453976-.0462971.2411137-.0874786.455574-.1327477.6913319.3314495.0522919.6120701.0965652.9558735.1508064-.2166862.3224277-.389389.5794067-.5839939.8689785.2315331.116354.445343.2238026.6667271.3350563.1635818-.3003292.2950993-.5417843.4564362-.837986.1849918.3291759.3231068.5749378.4822788.8581696.236393-.1381054.4254875-.2485752.6288605-.3673897-.1983433-.2914162-.3700275-.5436592-.5784836-.8499336.3566284-.0581493.6389294-.1041756.968605-.1579304-.0477009-.2422199-.0901395-.4577198-.1350518-.6857815zm-8.7643967 1.2116185c.1846428.3195934.3285351.5686512.4914188.8505821.2339497-.1382732.4225454-.2497425.6268282-.3704853-.2011919-.3007011-.3688478-.551281-.569047-.8505001.3607454-.0624847.6394815-.1107655.9373388-.1623573-.0279884-.2495251-.0509195-.4539585-.0768528-.6851654-.3709631.0821648-.7085781.1569424-1.1001015.24366.0196638-.3674469.0360384-.673439.0538788-1.006813-.2575264 0-.4736929 0-.7016182 0v1.001997c-.3515654-.0814991-.6681452-.1548882-1.0428848-.2417583-.0306416.263216-.0555754.4773979-.0799599.6868744.32901.0649185.5992889.1182518.9286423.183239-.2180777.3151913-.3836374.5544777-.576129.8326893.2169285.1208992.4104128.2287331.6540527.3645172.172703-.3216955.3019497-.5624449.4544336-.8464796z" fill="url(#a)"/></svg>