<svg width="12" height="8" viewBox="0 0 12 8" fill="none" xmlns="http://www.w3.org/2000/svg">
<path d="M5.52207 5.63339C6.39343 5.63339 7.09981 4.92702 7.09981 4.05566C7.09981 3.1843 6.39343 2.47792 5.52207 2.47792C4.65071 2.47792 3.94434 3.1843 3.94434 4.05566C3.94434 4.92702 4.65071 5.63339 5.52207 5.63339Z" fill="#0061A6"/>
<path d="M11.0222 3.93375C10.5892 2.84284 9.83751 1.89941 8.86001 1.22008C7.88251 0.540743 6.72205 0.15528 5.52208 0.111328C4.3221 0.15528 3.16165 0.540743 2.18415 1.22008C1.20664 1.89941 0.454935 2.84284 0.0219323 3.93375C-0.00731077 4.01254 -0.00731077 4.0988 0.0219323 4.17759C0.454935 5.2685 1.20664 6.21193 2.18415 6.89126C3.16165 7.5706 4.3221 7.95606 5.52208 8.00001C6.72205 7.95606 7.88251 7.5706 8.86001 6.89126C9.83751 6.21193 10.5892 5.2685 11.0222 4.17759C11.0515 4.0988 11.0515 4.01254 11.0222 3.93375ZM5.52208 6.38642C5.04879 6.38642 4.58614 6.24972 4.19262 5.99362C3.79909 5.73751 3.49238 5.3735 3.31126 4.94761C3.13015 4.52172 3.08276 4.05308 3.17509 3.60096C3.26742 3.14884 3.49533 2.73354 3.82999 2.40758C4.16466 2.08162 4.59104 1.85964 5.05523 1.76971C5.51942 1.67977 6.00057 1.72593 6.43783 1.90234C6.87509 2.07875 7.24882 2.37749 7.51176 2.76078C7.7747 3.14407 7.91505 3.59469 7.91505 4.05567C7.91407 4.67353 7.66165 5.26582 7.21309 5.70271C6.76453 6.1396 6.15643 6.38547 5.52208 6.38642Z" fill="#0061A6"/>
</svg>
