<svg width="11" height="12" viewBox="0 0 11 12" fill="none" xmlns="http://www.w3.org/2000/svg">
<path d="M8.69413 0.000106075C8.62164 0.00205412 8.54956 0.0126165 8.47917 0.0316059L1.03125 2.17159C0.736857 2.25661 0.47633 2.44505 0.289931 2.70777C0.103532 2.97048 0.00163953 3.29286 0 3.62507V10.5C0 11.3225 0.621042 12 1.375 12H9.625C10.379 12 11 11.3225 11 10.5V4.00007C11 3.17758 10.379 2.50008 9.625 2.50008H3.49479L8.70833 1.0001V2.00009H9.625V1.0001C9.625 0.437602 9.18637 -0.00789386 8.69413 0.000106075ZM1.375 3.50008H9.625C9.88442 3.50008 10.0833 3.71707 10.0833 4.00007V10.5C10.0833 10.783 9.88442 11 9.625 11H1.375C1.11558 11 0.916667 10.783 0.916667 10.5V4.00007C0.916667 3.71707 1.11558 3.50008 1.375 3.50008ZM8.47917 6.50005C8.29683 6.50005 8.12196 6.57907 7.99303 6.71972C7.8641 6.86037 7.79167 7.05113 7.79167 7.25004C7.79167 7.44895 7.8641 7.63972 7.99303 7.78037C8.12196 7.92102 8.29683 8.00004 8.47917 8.00004C8.6615 8.00004 8.83637 7.92102 8.9653 7.78037C9.09423 7.63972 9.16667 7.44895 9.16667 7.25004C9.16667 7.05113 9.09423 6.86037 8.9653 6.71972C8.83637 6.57907 8.6615 6.50005 8.47917 6.50005Z" fill="#0061A6"/>
</svg>
