<svg enable-background="new 0 0 30 45" viewBox="0 0 30 45" xmlns="http://www.w3.org/2000/svg" xmlns:xlink="http://www.w3.org/1999/xlink"><linearGradient id="a"><stop offset=".3891" stop-color="#ff9214"/><stop offset=".4593" stop-color="#ff8724"/><stop offset=".6237" stop-color="#ff7144"/><stop offset=".7623" stop-color="#ff6357"/><stop offset=".8573" stop-color="#ff5e5e"/></linearGradient><linearGradient id="b" gradientUnits="userSpaceOnUse" x1="6.8193" x2="15.5095" xlink:href="#a" y1="24.0527" y2="39.1046"/><linearGradient id="c" gradientUnits="userSpaceOnUse" x1="8.5531" x2="15.1633" xlink:href="#a" y1="9.5191" y2="20.9682"/><linearGradient id="d" gradientUnits="userSpaceOnUse" x1="22.8623" x2="26.6637" xlink:href="#a" y1="27.3561" y2="33.9403"/><path d="m.7 36.3c0-1.6 0-3.2 0-4.8 0-.8 0-1.7.2-2.5.2-.7.6-1.5 1.2-2 1.7-1.5 3.8-2.4 5.8-3.5.4 1.2.7 2.2 1 3.3s.7 2.1 1.1 3.4c.4-1.2.8-2.3 1.2-3.4.1-.2-.2-.5-.3-.7-.2-.5-.4-1-.5-1.5 0-.3.2-.8.5-.8.6-.1 1.2-.2 1.8 0 .5.1.7.7.5 1.2-.1.3-.1.6-.3.8-.6.7-.4 1.4-.1 2.1s.5 1.4.8 2.3c.7-2.3 1.4-4.4 2.2-6.7 1.8 1.1 3.6 2.1 5.3 3.1.8.5 1.3 1.2 1.6 2.1.2.7.1 1.3-.6 1.7-.7-.5-1.4-1-2.1-1.5-1.1-.8-2.1-.6-2.9.4-.7.7-.8 1.5-.2 2.3 1 1.4 2 2.7 3 4 .1.2.3.3.4.6-6.6.1-13.1.1-19.6.1z" fill="url(#b)"/><path d="m6.5 14.5c0-.4.1-1.2.2-2 .5-2.5 2.4-3.9 4.9-3.9 2.8 0 4.6 1.4 5.1 4 .2 1.2.2 2.5.1 3.7-.1 1-.3 2-.7 2.9-.8 1.9-2.3 2.8-4.3 2.9-2.1 0-3.6-.9-4.5-2.8-.6-1.4-.7-2.9-.8-4.8z" fill="url(#c)"/><path d="m22.3 32.4c1.4-1.6 2.8-3.2 4.2-4.8.5-.5.9-1 1.4-1.6.4-.5.8-.3 1.2 0s.4.6.1 1c-2.2 3-4.2 6-6.3 8.9-.4.6-.7.6-1.1 0-1.2-1.5-2.4-3.1-3.6-4.6-.3-.4-.5-.8 0-1.2.4-.4.8-.2 1.2.1.9.7 1.8 1.4 2.9 2.2z" fill="url(#d)"/></svg>