<svg enable-background="new 0 0 30 45" viewBox="0 0 30 45" xmlns="http://www.w3.org/2000/svg" xmlns:xlink="http://www.w3.org/1999/xlink"><linearGradient id="a" gradientUnits="userSpaceOnUse" x1="4.835194" x2="21.435103" y1="12.189879" y2="40.941761"><stop offset=".3891" stop-color="#ff9214"/><stop offset=".4593" stop-color="#ff8724"/><stop offset=".6237" stop-color="#ff7144"/><stop offset=".7623" stop-color="#ff6357"/><stop offset=".8573" stop-color="#ff5e5e"/></linearGradient><path d="m14.6301451 34.2616844c-.3137522-1.8718643-.6220369-3.7446747-.946208-5.6147327-.0596209-.3439407-.0356216-.6060867.2605782-.8532791.3713341-.3098984.6914845-.6811199 1.1079187-1.1006126.4406595.4665203.8656054.9033699 1.2703028 1.3582363.0641842.0721436.0660439.2301502.0480194.3405037-.3122253 1.9111214-.632122 3.8209877-.9500217 5.7311859-.0080194.0481911-.0123787.0969925.0319204.1665077 1.633647-3.2679119 3.2672987-6.5358238 4.9172869-9.8364239.8808613.4206696 1.7448044.8320923 2.6077137 1.2456799.8672276.415657 1.7358475.8285141 2.5995026 1.2514858 1.3365307.6545677 2.2553978 1.703661 2.7138863 3.102808.1947136.5942078.1917934 1.2546692.2663097 1.8864765.1668911 1.4150219.3268566 2.8308659.4866867 4.2467098.0123768.1096382.0016308.2218933.0016308.3615685-9.3512058 0-18.6991634 0-28.0956707 0 .064308-.6092186.1226566-1.2012329.1900069-1.7922211.164176-1.4406128.3146931-2.8831863.5110557-4.3194561.0526189-.3848686.2084558-.7715359.388976-1.1200485.5565913-1.0745506 1.3795753-1.8843021 2.4851377-2.4070263 1.704061-.8056984 3.3994145-1.629818 5.1260729-2.4593887 1.6448154 3.2881947 3.2802315 6.5576019 4.9156475 9.8270111.0210817-.0049935.0421655-.0099869.0632475-.0149842zm6.0116892-.504528h5.5885048c0-.9303856 0-1.8358459 0-2.7449074-1.8777771 0-3.7309418 0-5.5885048 0zm-9.5488711-24.8305521c-.9204683.2496881-1.8183098.5655499-2.5393009 1.2250338-.7862563.719183-.7911472 1.5836153.0447531 2.2396412.4635372.3637905 1.0324135.5922813 1.5487499.8905182.1564503.0903673.3242121.1859627.4386768.3201933.7656069.897809 1.7026739 1.5375586 2.8779268 1.6817617.8747482.1073284 1.7723398.1124716 2.6538439.0612774 1.354044-.0786381 2.4428768-.7259531 3.3156471-1.7566004.1135445-.1340857.2887173-.2207661.4450264-.3129873.5345535-.3153858 1.12644-.5591812 1.598711-.9487734.7849941-.6475677.7929382-1.5040665-.0011635-2.141819-.5337696-.4286766-1.1695881-.7709026-1.8115921-1.0160208-1.4868507-.5676804-3.0557346-.7177906-4.9995604-.7161789-.9708708-.009285-2.2856158.1250848-3.5717181.4739542zm-1.6806993 7.1841421c.1917801 1.7277718.7720308 3.3248749 1.6523218 4.8150787.5184126.877594 1.1419554 1.6711311 1.9720707 2.2820168 1.281888.943346 2.6392584.9679508 3.9097433.0140381.45467-.3413773.8752651-.7523479 1.2320805-1.1954365 1.2138481-1.5073357 1.9483852-3.2441425 2.3134689-5.1376076.087841-.4555893.1183434-.9222326.1762199-1.3919363-.685915-.0543547-1.2302227-.0260658-1.7774868.3549938-.49856.347146-1.1122627.5655203-1.7057095.7318277-1.0824509.3033447-2.2001104.2605648-3.3134518.1817093-1.0038843-.0711021-1.9641018-.3218422-2.7774935-.9087753-.5281496-.3811064-1.0595951-.4289837-1.7105827-.3538971.0095397.2143488.0071212.4125071.0288192.6079884z" fill="url(#a)"/></svg>